<svg xmlns="http://www.w3.org/2000/svg" xmlns:xlink="http://www.w3.org/1999/xlink" width="150" zoomAndPan="magnify" viewBox="0 0 112.5 44.999999" height="60" preserveAspectRatio="xMidYMid meet" version="1.0"><defs><g/><clipPath id="63d9218e7e"><path d="M 53.347656 1.871094 L 82.46875 1.871094 L 82.46875 42.9375 L 53.347656 42.9375 Z M 53.347656 1.871094 " clip-rule="nonzero"/></clipPath></defs><g clip-path="url(#63d9218e7e)"><path fill="#737373" d="M 72.269531 4.902344 C 72.300781 4.757812 72.269531 4.609375 72.265625 4.460938 C 72.257812 4.316406 72.285156 4.152344 72.398438 4.058594 C 72.445312 4.019531 72.511719 3.992188 72.539062 3.9375 C 72.570312 3.878906 72.554688 3.8125 72.546875 3.75 C 72.527344 3.515625 72.632812 3.289062 72.738281 3.074219 C 72.945312 2.660156 73.183594 2.21875 73.605469 2.023438 C 73.933594 1.875 74.3125 1.902344 74.671875 1.9375 C 74.855469 1.953125 75.042969 1.96875 75.230469 1.984375 C 75.359375 1.996094 75.488281 2.007812 75.613281 2.039062 C 75.730469 2.070312 75.84375 2.117188 75.953125 2.167969 C 76.222656 2.292969 76.484375 2.441406 76.726562 2.613281 C 76.988281 2.792969 77.183594 3.0625 77.28125 3.367188 C 77.382812 3.6875 77.46875 4.011719 77.535156 4.339844 C 77.566406 4.480469 77.589844 4.628906 77.542969 4.761719 C 77.476562 4.9375 77.296875 5.050781 77.21875 5.222656 C 77.152344 5.371094 77.171875 5.550781 77.230469 5.703125 C 77.289062 5.855469 77.386719 5.992188 77.472656 6.132812 C 77.503906 6.183594 77.53125 6.242188 77.527344 6.300781 C 77.515625 6.441406 77.328125 6.484375 77.1875 6.476562 C 77.046875 6.46875 76.867188 6.472656 76.808594 6.601562 C 76.78125 6.65625 76.789062 6.722656 76.765625 6.78125 C 76.710938 6.90625 76.550781 6.921875 76.414062 6.914062 C 76.378906 6.910156 76.347656 6.933594 76.339844 6.964844 C 76.320312 7.101562 76.492188 7.25 76.484375 7.40625 C 76.480469 7.46875 76.445312 7.527344 76.410156 7.582031 C 76.25 7.84375 76.117188 8.167969 75.753906 8.050781 C 75.453125 7.953125 75.25 7.800781 74.921875 7.746094 C 74.808594 7.726562 74.691406 7.746094 74.597656 7.8125 C 74.355469 7.984375 74.433594 8.300781 74.414062 8.570312 C 74.40625 8.714844 74.367188 8.851562 74.359375 8.992188 C 74.355469 9.132812 74.390625 9.289062 74.503906 9.375 C 74.597656 9.449219 74.726562 9.460938 74.847656 9.472656 C 75.171875 9.507812 75.488281 9.585938 75.789062 9.703125 C 76.785156 10.097656 77.175781 11.300781 77.789062 12.175781 C 78.054688 12.554688 78.34375 12.914062 78.628906 13.277344 C 78.898438 13.617188 79.167969 13.953125 79.433594 14.292969 C 79.460938 14.324219 79.496094 14.363281 79.539062 14.355469 C 79.570312 14.347656 79.589844 14.3125 79.605469 14.28125 C 79.953125 13.578125 80.1875 12.828125 80.417969 12.078125 C 80.492188 11.835938 80.566406 11.597656 80.640625 11.355469 C 80.753906 10.992188 80.867188 10.625 80.84375 10.246094 C 80.828125 9.890625 80.6875 9.546875 80.660156 9.191406 C 80.617188 8.625 80.851562 8.0625 80.792969 7.496094 C 80.789062 7.429688 80.777344 7.363281 80.796875 7.300781 C 80.8125 7.238281 80.871094 7.183594 80.9375 7.191406 C 81.007812 7.199219 81.050781 7.277344 81.117188 7.3125 C 81.195312 7.351562 81.292969 7.320312 81.382812 7.3125 C 81.472656 7.300781 81.589844 7.335938 81.597656 7.425781 C 81.769531 7.332031 82.011719 7.382812 82.089844 7.5625 C 82.183594 7.5 82.316406 7.554688 82.378906 7.648438 C 82.4375 7.738281 82.449219 7.855469 82.449219 7.964844 C 82.5625 7.941406 82.675781 8.039062 82.710938 8.148438 C 82.746094 8.261719 82.726562 8.382812 82.703125 8.496094 C 82.664062 8.71875 82.621094 8.941406 82.578125 9.164062 C 82.53125 9.421875 82.484375 9.679688 82.371094 9.914062 C 82.300781 10.054688 82.207031 10.1875 82.136719 10.332031 C 82.039062 10.539062 81.988281 10.769531 81.945312 10.996094 C 81.722656 12.132812 81.632812 13.300781 81.320312 14.417969 C 81.203125 14.847656 81.050781 15.269531 80.902344 15.6875 C 80.792969 15.992188 80.683594 16.296875 80.574219 16.601562 C 80.554688 16.65625 80.535156 16.714844 80.496094 16.757812 C 80.378906 16.886719 80.164062 16.84375 80 16.777344 C 78.761719 16.296875 77.714844 15.433594 76.691406 14.585938 C 76.542969 14.730469 76.386719 14.875 76.234375 15.015625 C 76.03125 15.199219 76.003906 15.46875 75.949219 15.71875 C 75.757812 16.574219 75.175781 17.25 74.882812 18.0625 C 74.628906 18.765625 74.484375 19.519531 74.078125 20.148438 C 74.980469 20.84375 75.742188 21.617188 76.574219 22.398438 C 76.863281 22.671875 77.148438 22.945312 77.402344 23.25 C 77.660156 23.558594 77.886719 23.894531 78.140625 24.207031 C 78.363281 24.476562 78.605469 24.730469 78.835938 24.992188 C 78.976562 25.152344 79.117188 25.316406 79.253906 25.480469 C 79.460938 25.730469 79.671875 25.980469 79.878906 26.230469 C 80.136719 26.535156 80.394531 26.84375 80.558594 27.203125 C 80.777344 27.683594 80.4375 28.234375 80.152344 28.679688 C 79.871094 29.125 79.511719 29.515625 79.222656 29.957031 C 78.945312 30.375 78.734375 30.832031 78.519531 31.289062 C 78.390625 31.570312 78.257812 31.851562 78.128906 32.132812 C 77.691406 33.078125 77.050781 33.933594 76.523438 34.832031 C 75.996094 35.730469 75.535156 36.691406 75.386719 37.722656 C 75.347656 37.972656 75.695312 38.109375 75.722656 38.359375 C 75.734375 38.453125 75.699219 38.550781 75.714844 38.644531 C 75.730469 38.75 75.808594 38.839844 75.816406 38.945312 C 75.832031 39.128906 75.644531 39.261719 75.558594 39.425781 C 75.507812 39.527344 75.492188 39.644531 75.480469 39.757812 C 75.457031 39.964844 75.433594 40.171875 75.410156 40.378906 C 75.382812 40.625 75.351562 40.871094 75.398438 41.113281 C 75.472656 41.523438 75.742188 41.867188 75.988281 42.207031 C 76.074219 42.324219 76.160156 42.453125 76.152344 42.597656 C 76.144531 42.664062 76.121094 42.726562 76.089844 42.785156 C 76.019531 42.925781 75.917969 43.0625 75.765625 43.097656 C 75.609375 43.132812 75.449219 43.042969 75.316406 42.949219 C 74.578125 42.429688 74.0625 41.65625 73.570312 40.902344 C 73.34375 40.558594 73.113281 40.199219 73.078125 39.789062 C 72.703125 39.765625 72.445312 39.410156 72.246094 39.085938 C 71.976562 38.652344 71.707031 38.21875 71.441406 37.785156 C 71.410156 37.734375 71.375 37.675781 71.394531 37.617188 C 71.40625 37.566406 71.457031 37.535156 71.5 37.507812 C 71.925781 37.261719 72.367188 37.046875 72.804688 36.832031 C 73.011719 36.734375 73.230469 36.628906 73.460938 36.632812 C 73.535156 36.632812 73.609375 36.644531 73.679688 36.628906 C 73.882812 36.574219 73.941406 36.320312 74.085938 36.167969 C 74.441406 35.800781 74.351562 35.246094 74.523438 34.761719 C 74.71875 34.199219 74.917969 33.632812 75.070312 33.050781 C 75.171875 32.671875 75.25 32.285156 75.367188 31.910156 C 75.714844 30.761719 76.378906 29.742188 76.914062 28.664062 C 77.011719 28.464844 76.976562 28.167969 76.828125 28.003906 C 76.191406 27.316406 75.308594 26.933594 74.453125 26.550781 C 73.546875 26.144531 72.640625 25.71875 71.808594 25.167969 C 70.847656 26.8125 69.097656 27.855469 67.660156 29.105469 C 67.121094 29.570312 66.613281 30.070312 66.136719 30.597656 C 65.894531 30.867188 65.660156 31.144531 65.371094 31.355469 C 65.015625 31.609375 64.597656 31.753906 64.195312 31.921875 C 63.222656 32.320312 62.308594 32.855469 61.484375 33.507812 C 61.019531 33.878906 60.582031 34.246094 60.132812 34.613281 C 59.308594 35.285156 58.066406 36.496094 57.378906 37.300781 L 56.570312 38.246094 C 56.507812 38.316406 56.445312 38.414062 56.484375 38.5 C 56.511719 38.558594 56.578125 38.585938 56.621094 38.636719 C 56.699219 38.738281 56.648438 38.890625 56.582031 39.003906 C 56.324219 39.476562 55.949219 39.878906 55.496094 40.171875 C 55.285156 40.308594 55.046875 40.429688 54.914062 40.640625 C 54.828125 40.78125 54.796875 40.949219 54.765625 41.113281 C 54.667969 41.617188 54.574219 42.117188 54.480469 42.617188 C 54.226562 42.597656 53.949219 42.5625 53.769531 42.378906 C 53.597656 42.203125 53.5625 41.941406 53.535156 41.695312 C 53.492188 41.289062 53.449219 40.878906 53.410156 40.472656 C 53.382812 40.214844 53.355469 39.949219 53.425781 39.699219 C 53.496094 39.460938 53.648438 39.253906 53.707031 39.011719 C 53.769531 38.742188 53.699219 38.460938 53.65625 38.1875 C 53.570312 37.644531 53.578125 37.09375 53.582031 36.546875 C 53.585938 36.332031 53.613281 36.070312 53.808594 35.976562 C 53.902344 35.933594 54.007812 35.9375 54.109375 35.945312 L 56.046875 36.082031 C 56.210938 36.089844 56.367188 36.023438 56.46875 35.898438 L 58.804688 33.058594 C 58.992188 32.828125 59.179688 32.601562 59.339844 32.351562 C 59.40625 32.246094 59.46875 32.136719 59.535156 32.035156 C 59.722656 31.730469 59.949219 31.453125 60.207031 31.207031 C 60.636719 30.800781 61.144531 30.488281 61.621094 30.144531 C 61.835938 29.996094 62.046875 29.851562 62.261719 29.703125 C 62.3125 29.664062 62.3125 29.625 62.367188 29.59375 C 63.695312 28.890625 64.660156 27.648438 65.410156 26.34375 C 65.546875 26.105469 65.679688 25.867188 65.855469 25.65625 C 66 25.484375 66.171875 25.339844 66.332031 25.1875 C 66.648438 24.890625 66.929688 24.558594 67.171875 24.199219 C 67.441406 23.804688 67.4375 23.222656 67.464844 22.746094 C 67.515625 21.910156 67.464844 21.167969 67.773438 20.363281 C 67.953125 19.886719 68.210938 19.4375 68.535156 19.042969 C 68.867188 18.636719 69.308594 18.339844 69.640625 17.9375 C 69.875 17.648438 70.019531 17.296875 70.152344 16.949219 C 70.3125 16.527344 70.464844 16.097656 70.507812 15.648438 C 70.558594 15.125 70.460938 14.597656 70.359375 14.082031 C 70.277344 13.652344 70.191406 13.222656 70.109375 12.792969 C 70.066406 12.582031 70.027344 12.367188 69.984375 12.15625 C 69.921875 11.824219 69.921875 11.460938 69.859375 11.128906 C 69.824219 10.945312 69.789062 10.761719 69.753906 10.582031 C 69.71875 10.390625 69.679688 10.1875 69.371094 10.113281 C 69.21875 10.078125 69.058594 10.085938 68.90625 10.128906 C 67.726562 10.453125 66.546875 10.78125 65.367188 11.105469 C 65.292969 11.125 65.210938 11.148438 65.160156 11.210938 C 65.109375 11.273438 65.101562 11.359375 65.097656 11.4375 C 65.074219 11.886719 65.046875 12.332031 65.019531 12.777344 C 65.003906 13.070312 64.984375 13.363281 65.015625 13.652344 C 65.046875 13.988281 65.144531 14.320312 65.226562 14.648438 C 65.371094 15.242188 65.484375 15.878906 65.898438 16.324219 C 66.039062 16.472656 66.207031 16.59375 66.347656 16.742188 C 66.574219 16.972656 66.730469 17.257812 66.882812 17.542969 C 67 17.761719 67.121094 17.980469 67.238281 18.203125 C 67.253906 18.230469 67.269531 18.261719 67.269531 18.296875 C 67.261719 18.378906 67.152344 18.414062 67.117188 18.492188 C 67.078125 18.582031 67.148438 18.699219 67.085938 18.773438 C 67.0625 18.800781 67.027344 18.8125 66.992188 18.824219 C 66.582031 18.949219 66.117188 19.070312 65.738281 18.859375 C 65.652344 19 65.4375 19.003906 65.296875 18.914062 C 65.160156 18.820312 65.082031 18.667969 65.007812 18.519531 C 64.851562 18.195312 64.691406 17.871094 64.625 17.519531 C 64.574219 17.265625 64.578125 17.007812 64.550781 16.75 C 64.386719 15.160156 63.53125 13.90625 63.238281 12.140625 C 63.1875 11.828125 63.175781 11.546875 63.140625 11.230469 C 63.113281 10.964844 63.09375 10.667969 63.257812 10.460938 C 63.351562 10.34375 63.484375 10.273438 63.617188 10.207031 C 65.304688 9.34375 67 8.480469 68.769531 7.796875 C 69.355469 7.570312 69.96875 7.359375 70.597656 7.382812 C 71 7.398438 71.398438 7.511719 71.804688 7.449219 C 71.878906 7.441406 71.953125 7.414062 72.019531 7.382812 C 72.054688 7.367188 72.089844 7.347656 72.109375 7.316406 C 72.136719 7.28125 72.136719 7.230469 72.132812 7.1875 C 72.097656 6.847656 71.859375 6.570312 71.726562 6.261719 C 71.699219 6.195312 71.675781 6.128906 71.675781 6.0625 C 71.679688 5.839844 71.914062 5.707031 72.054688 5.539062 C 72.171875 5.398438 72.234375 5.214844 72.21875 5.03125 " fill-opacity="1" fill-rule="nonzero"/></g><g fill="#ffffff" fill-opacity="1"><g transform="translate(82.753756, 28.093325)"><g><path d="M 12.742188 -5.765625 C 12.742188 -9.179688 10.410156 -11.902344 6.867188 -11.902344 C 3.476562 -11.902344 0.929688 -9.289062 0.929688 -5.832031 C 0.929688 -2.355469 3.476562 0.257812 6.867188 0.257812 C 9.394531 0.257812 11.449219 -1.144531 12.441406 -3.542969 L 10.496094 -3.542969 C 9.785156 -2.289062 8.488281 -1.535156 6.867188 -1.535156 C 4.664062 -1.535156 3.046875 -2.960938 2.765625 -5.117188 L 12.699219 -5.117188 C 12.722656 -5.335938 12.742188 -5.550781 12.742188 -5.765625 Z M 6.867188 -10.171875 C 8.941406 -10.171875 10.519531 -8.878906 10.90625 -6.804688 L 2.808594 -6.804688 C 3.175781 -8.835938 4.75 -10.171875 6.867188 -10.171875 Z M 6.867188 -10.171875 "/></g></g></g><g fill="#ffffff" fill-opacity="1"><g transform="translate(96.401165, 28.093325)"><g><path d="M 10.929688 0 L 6.632812 -6.132812 L 10.605469 -11.664062 L 8.574219 -11.664062 L 5.550781 -7.34375 L 2.570312 -11.664062 L 0.519531 -11.664062 L 4.429688 -6.046875 L 0.152344 0 L 2.179688 0 L 5.53125 -4.839844 L 8.878906 0 Z M 10.929688 0 "/></g></g></g><g fill="#ffffff" fill-opacity="1"><g transform="translate(3.041025, 28.093325)"><g><path d="M 5.53125 0.257812 C 8.292969 0.257812 10.152344 -1.144531 10.152344 -3.328125 C 10.152344 -6.175781 7.777344 -6.566406 5.765625 -6.890625 C 4.210938 -7.128906 2.871094 -7.367188 2.871094 -8.597656 C 2.871094 -9.613281 3.867188 -10.261719 5.441406 -10.261719 C 7.085938 -10.261719 8.078125 -9.570312 8.144531 -8.292969 L 9.871094 -8.292969 C 9.804688 -10.496094 8.121094 -11.902344 5.484375 -11.902344 C 2.851562 -11.902344 1.078125 -10.539062 1.078125 -8.53125 C 1.078125 -5.898438 3.328125 -5.484375 5.3125 -5.140625 C 6.890625 -4.882812 8.335938 -4.621094 8.335938 -3.238281 C 8.335938 -2.117188 7.191406 -1.425781 5.59375 -1.425781 C 3.953125 -1.425781 2.765625 -2.179688 2.679688 -3.5625 L 0.863281 -3.5625 C 0.972656 -1.210938 2.765625 0.257812 5.53125 0.257812 Z M 5.53125 0.257812 "/></g></g></g><g fill="#ffffff" fill-opacity="1"><g transform="translate(14.118745, 28.093325)"><g><path d="M 8.035156 -11.902344 C 6.15625 -11.902344 4.558594 -11.144531 3.476562 -9.871094 L 3.109375 -11.664062 L 1.835938 -11.664062 L 1.835938 4.167969 L 3.671875 4.167969 L 3.671875 -1.554688 C 4.75 -0.410156 6.285156 0.257812 8.035156 0.257812 C 11.511719 0.257812 14.019531 -2.355469 14.019531 -5.832031 C 14.019531 -9.308594 11.511719 -11.902344 8.035156 -11.902344 Z M 7.90625 -1.511719 C 5.421875 -1.511719 3.605469 -3.371094 3.605469 -5.832031 C 3.605469 -8.273438 5.421875 -10.128906 7.90625 -10.128906 C 10.367188 -10.128906 12.183594 -8.292969 12.183594 -5.832031 C 12.183594 -3.347656 10.367188 -1.511719 7.90625 -1.511719 Z M 7.90625 -1.511719 "/></g></g></g><g fill="#ffffff" fill-opacity="1"><g transform="translate(29.083383, 28.093325)"><g><path d="M 7.105469 0.257812 C 10.628906 0.257812 13.285156 -2.332031 13.285156 -5.832031 C 13.285156 -9.308594 10.628906 -11.902344 7.105469 -11.902344 C 3.5625 -11.902344 0.90625 -9.332031 0.90625 -5.832031 C 0.90625 -2.332031 3.5625 0.257812 7.105469 0.257812 Z M 7.105469 -1.511719 C 4.601562 -1.511719 2.785156 -3.328125 2.785156 -5.832031 C 2.785156 -8.316406 4.601562 -10.128906 7.105469 -10.128906 C 9.589844 -10.128906 11.40625 -8.316406 11.40625 -5.808594 C 11.40625 -3.328125 9.589844 -1.511719 7.105469 -1.511719 Z M 7.105469 -1.511719 "/></g></g></g><g fill="#ffffff" fill-opacity="1"><g transform="translate(43.313827, 28.093325)"><g><path d="M 7.171875 -11.707031 C 5.484375 -11.707031 4.277344 -11.082031 3.433594 -9.871094 L 3.152344 -11.664062 L 1.835938 -11.664062 L 1.835938 0 L 3.671875 0 L 3.671875 -6.328125 C 3.671875 -8.597656 4.882812 -9.980469 7.019531 -9.980469 L 8.207031 -9.980469 L 8.207031 -11.707031 Z M 7.171875 -11.707031 "/></g></g></g><g fill="#ffffff" fill-opacity="1"><g transform="translate(51.649108, 28.093325)"><g><path d="M 6.675781 -1.683594 C 5.074219 -1.683594 4.210938 -2.546875 4.210938 -4.125 L 4.210938 -10 L 7.882812 -10 L 7.882812 -11.664062 L 4.210938 -11.664062 L 4.210938 -14.125 L 3.929688 -14.125 L 0.324219 -10.324219 L 0.324219 -10 L 2.375 -10 L 2.375 -4.0625 C 2.375 -1.535156 3.929688 0 6.4375 0 L 7.949219 0 L 7.949219 -1.683594 Z M 6.675781 -1.683594 "/></g></g></g></svg>